<svg height="100%" version="1.1" width="100%" xmlns="http://www.w3.org/2000/svg" preserveAspectRatio="xMidYMid meet" viewBox="0 0 600 442" xmlns:xlink="http://www.w3.org/1999/xlink"><desc>Created with Snap</desc><defs/><g id="root" contentwidth="141.4811519772659" contentheight="147.33333333333334">
          <rect class="background" height="2000%" width="2000%" y="-1000%" x="-1000%" style="" fill="#ffffff"/>
          <rect class="watermarklayer" height="100%" width="100%" y="0" x="0" style="" fill="none"/>
          <g class="content" id="content" transform="matrix(1.1935,0,0,1.1935,268.6798,249.8556)">
            <g class="icon" style="mask: url(#mask);">
            <svg height="123.44571428571427" version="1.1" width="118.54236559139785" xmlns="http://www.w3.org/2000/svg" x="-33.02903225806452" y="-85.89999999999999"><desc>Created with Snap</desc><defs/><svg xmlns:xlink="http://www.w3.org/1999/xlink" version="1.1" xmlns="http://www.w3.org/2000/svg" viewBox="0 0 118.54236559139785 123.44571428571427"><defs/><g><path fill="none" stroke="#da251d" paint-order="fill stroke markers" d=" M 66.04236559139785 22.5 L 22.5 22.5 L 22.5 70.94571428571427 M 96.04236559139785 7.5 L 7.5 7.5 L 7.5 100.94571428571427 L 96.04236559139785 100.94571428571427 L 96.04236559139785 7.5 M 111.04236559139785 32.5 L 111.04236559139785 115.94571428571427 L 32.5 115.94571428571427" stroke-linecap="round" stroke-miterlimit="10" stroke-width="6" style=""/></g><desc>Created with Snap</desc></svg></svg></g>
            <g id="icon_name_and_slogan_gap">
            </g>
            <g class="name_and_slogan" id="name_and_slogan_id">
              <g class="name"><g id="nameDefaultGroup"><path d="M42.8 -45.7Q42.6 -46.7 41.8 -47.5L41.8 -47.5L41.1 -48.1L40.8 -48.2L40.8 -48.2L40.2 -48.4L39.5 -48.4L39.5 -48.4L39.4 -48.2L38.5 -48L38.4 -48Q37.5 -47.4 37.3 -46.4L37.1 -46.4L26.2 -14.3L15.2 -46.4L15.2 -46.4L14.9 -47L14.8 -47.2L14.2 -47.8L13.9 -48L13.2 -48.2L12.9 -48.4L12.8 -48.4L12.1 -48.4L11.7 -48.2L11.5 -48.2L11.2 -48L10.7 -47.5L10.4 -47.2L10 -46.5L10 -46.3L9.7 -45.7L9.7 -45.7L4.5 -3.7Q4.2 -0.4 7 0Q9.7 0.4 10.1 -2.7L10.1 -2.8L13.9 -32.6L23.5 -4.5L23.5 -4.5Q24.2 -2.4 26.2 -2.5Q28.1 -2.4 28.8 -4.5L29 -4.5L38.5 -32.6L42.3 -2.8L42.3 -2.7Q42.8 0.4 45.4 0Q48.2 -0.4 48 -3.7L42.8 -45.7z" style="" fill="#333333" id="namepathdata"/></g></g>
              <g class="slogan"><g id="sloganDefaultGroup"/></g>
            </g>
            <g class="border">
            </g>
          </g>
          <defs id="defs">
            <mask xmlns="http://www.w3.org/2000/svg" id="mask">
                <rect id="showAll" fill="white" x="-33.02903225806452" y="-85.89999999999999" width="118.54236559139785" height="123.44571428571427"/>
                <rect id="hideNameBg" fill="black" x="0" y="0" width="0" height="0" stroke-width="2" stroke="black"/>
                <rect id="hideSloganBg" fill="black" x="0" y="0" width="0" height="0" stroke-width="2" stroke="black"/>
            <path d="M42.8 -45.7Q42.6 -46.7 41.8 -47.5L41.8 -47.5L41.1 -48.1L40.8 -48.2L40.8 -48.2L40.2 -48.4L39.5 -48.4L39.5 -48.4L39.4 -48.2L38.5 -48L38.4 -48Q37.5 -47.4 37.3 -46.4L37.1 -46.4L26.2 -14.3L15.2 -46.4L15.2 -46.4L14.9 -47L14.8 -47.2L14.2 -47.8L13.9 -48L13.2 -48.2L12.9 -48.4L12.8 -48.4L12.1 -48.4L11.7 -48.2L11.5 -48.2L11.2 -48L10.7 -47.5L10.4 -47.2L10 -46.5L10 -46.3L9.7 -45.7L9.7 -45.7L4.5 -3.7Q4.2 -0.4 7 0Q9.7 0.4 10.1 -2.7L10.1 -2.8L13.9 -32.6L23.5 -4.5L23.5 -4.5Q24.2 -2.4 26.2 -2.5Q28.1 -2.4 28.8 -4.5L29 -4.5L38.5 -32.6L42.3 -2.8L42.3 -2.7Q42.8 0.4 45.4 0Q48.2 -0.4 48 -3.7L42.8 -45.7z" style="stroke-width: 5;" fill="#000000" id="masknamepathdata" stroke="#000000" paint-order="stroke" transform="matrix(1,0,0,1,0,0)"/></mask>
          
          </defs>
        </g>
        </svg>